<svg height="480pt" viewBox="-56 0 480 480.01168" width="480pt" xmlns="http://www.w3.org/2000/svg"><path d="m264.003906 96h-24c-2.429687 0-4.726562 1.101562-6.246094 3l-28.238281 35.296875-90.402343-37.679687c-2.992188-1.25-6.441407-.566407-8.734376 1.726562l-16 16c-1.632812 1.625-2.488281 3.871094-2.34375 6.167969.140626 2.296875 1.265626 4.421875 3.085938 5.832031l65.679688 51.097656-31.277344 40.796875-42.480469-17.597656c-2.992187-1.222656-6.425781-.539063-8.722656 1.734375l-8 8c-1.699219 1.699219-2.546875 4.074219-2.304688 6.464844.242188 2.390625 1.546875 4.546875 3.554688 5.871094l46.398437 30.578124 31.351563 47.199219c1.328125 1.996094 3.480469 3.289063 5.867187 3.527344.269532 0 .535156.039063.796875.039063 2.125 0 4.15625-.84375 5.65625-2.34375l8-8c2.230469-2.226563 2.945313-5.554688 1.824219-8.503907l-15.367188-40.296875 38.726563-33.308594 50.851563 65.367188c1.40625 1.820312 3.53125 2.945312 5.828124 3.085938 2.300782.144531 4.546876-.710938 6.171876-2.34375l16-16c2.292968-2.292969 2.972656-5.742188 1.726562-8.734376l-37.679688-90.402343 35.296876-28.238281c1.914062-1.542969 3.015624-3.878907 2.980468-6.335938v-24c0-4.417969-3.578125-8-8-8zm-8 28.160156-37 29.601563c-2.789062 2.222656-3.769531 6.03125-2.398437 9.328125l37.9375 91.054687-5.800781 5.800781-50.398438-64.847656c-1.34375-1.730468-3.335938-2.832031-5.515625-3.050781-2.175781-.199219-4.34375.484375-6.015625 1.898437l-49.144531 42.253907c-2.71875 2.175781-3.722657 5.859375-2.476563 9.113281l9.75 25.597656-18.535156-27.863281c-.597656-.890625-1.363281-1.652344-2.257812-2.246094l-23.804688-15.695312 24.75 10.269531c3 1.230469 6.441406.539062 8.734375-1.75.25-.25.480469-.519531.691406-.800781l39.832031-52c2.683594-3.492188 2.039063-8.5-1.441406-11.199219l-64.847656-50.402344 5.800781-5.796875 91.054688 37.933594c3.296875 1.371094 7.101562.390625 9.328125-2.398437l29.601562-36.960938h12.15625zm0 0"/><path d="m184.003906 0c-101.574218.109375-183.886718 82.425781-183.99999975 184 0 122.023438 171.20312475 286.832031 178.48046875 293.792969 3.148437 3.011719 8.128906 2.949219 11.203125-.136719 7.253906-7.257812 178.316406-179.65625 178.316406-293.65625-.109375-101.574219-82.421875-183.890625-184-184zm-.125 460.65625c-29.863281-29.855469-167.875-173.417969-167.875-276.65625 0-92.785156 75.21875-168 168-168 92.785156 0 168 75.214844 168 168 0 96.382812-138.46875 245.777344-168.125 276.65625zm0 0"/><path d="m184.003906 40c-79.527344 0-144 64.472656-144 144s64.472656 144 144 144c79.53125 0 144-64.472656 144-144-.089844-79.492188-64.507812-143.90625-144-144zm0 272c-70.691406 0-128-57.308594-128-128s57.308594-128 128-128c70.695313 0 128 57.308594 128 128-.082031 70.65625-57.339844 127.917969-128 128zm0 0"/></svg>