<svg height="512pt" viewBox="-20 0 512 512.11273" width="512pt" xmlns="http://www.w3.org/2000/svg"><path d="m473.011719 52.066406c0 28.757813-23.308594 52.070313-52.066407 52.070313-28.757812 0-52.066406-23.3125-52.066406-52.070313 0-28.753906 23.308594-52.066406 52.066406-52.066406 28.757813 0 52.066407 23.3125 52.066407 52.066406zm0 0"/><path d="m446.109375 483.578125c-18.097656 13.65625-42.710937 14.835937-62.027344 2.96875l-173.917969-106.042969c3.019532-.171875 5.980469-.867187 8.757813-2.058594l122.097656-54.324218c13.484375-5.984375 22.570313-18.917969 23.621094-33.632813 1.054687-14.714843-6.09375-28.8125-18.585937-36.65625l-65.433594-46.167969c-2.132813-1.351562-3.574219-3.570312-3.9375-6.070312-.367188-2.5.371094-5.039062 2.03125-6.945312l12.667968-6.335938-5.46875-3.820312c-7.226562-5.011719-12.28125-12.578126-14.144531-21.171876l-3.296875-15.449218c-1.988281-8.988282-.300781-18.402344 4.6875-26.140625 4.988282-7.742188 12.859375-13.171875 21.867188-15.078125l17.617187-3.820313c2.253907-.488281 4.613281-.058593 6.550781 1.199219 1.9375 1.253906 3.296876 3.226562 3.777344 5.484375.507813 2.234375.097656 4.582031-1.144531 6.507813-1.242187 1.929687-3.207031 3.273437-5.453125 3.734374l-17.617188 3.816407c-9.367187 2.050781-15.332031 11.269531-13.363281 20.652343l3.386719 15.449219c.890625 4.300781 3.410156 8.09375 7.027344 10.585938l13.191406 9.199219.171875-.085938 61.613281 42.953125c9.003906 6.277344 20.855469 6.683594 30.269532 1.042969.769531.855468 1.699218 1.554687 2.734374 2.054687l35.121094 16.691407c2.796875 1.332031 6.097656 1.070312 8.648438-.6875 2.554687-1.757813 3.980468-4.746094 3.734375-7.835938-.246094-3.09375-2.121094-5.816406-4.921875-7.152344l-34.875-16.609375c3.644531-10.878906-.316406-22.855469-9.730469-29.417969l-31.238281-21.78125c-1.425782-.984374-2.125-2.722656-1.785156-4.417968.339843-1.695313 1.652343-3.03125 3.347656-3.390625l12.320312-2.605469c4.667969-1.035156 7.617188-5.65625 6.597656-10.324219l-5.121093-24.039062c-2.617188-12.035157-8.644531-23.058594-17.355469-31.761719-22-22.019531-57.089844-23.820312-81.226562-4.164062l-22.824219 18.570312-34.40625 27.984375c-.796875-1.023437-1.816407-1.859375-2.976563-2.4375l-102.167968-48.648437 4.4375-8.773438c2.140624-4.289062.398437-9.503906-3.890626-11.644531-4.289062-2.144531-9.503906-.402344-11.644531 3.886719l-4.574219 9.085937-27.359374-13.015625c-2.824219-1.609375-6.308594-1.503906-9.03125.269531-2.722657 1.777344-4.222657 4.921875-3.894532 8.152344.332032 3.230469 2.4375 6.007813 5.460938 7.195313l27.058594 12.886718-5.058594 10.109375c-2.144532 4.292969-.402344 9.503907 3.886718 11.648438 4.289063 2.140625 9.503907.402343 11.644532-3.886719l5.207031-10.414062 98.78125 47.035156-18.378906 14.976562c-4.378907 3.496094-8.082031 7.757813-10.933594 12.582032-3.140625 6.304687-4.746094 13.261718-4.6875 20.308593-.09375 16.199219 7.957031 31.359375 21.433594 40.351563l82.441406 52.847656c2.65625 1.738281 4.152344 4.789062 3.898437 7.953125-.25 3.167969-2.214843 5.941406-5.113281 7.234375l-85.476562 38.097656c-13.117188 5.492188-19.722657 20.21875-15.101563 33.667969.121094.320313.324219.589844.460938.867187l-119.164063-72.625c-2.648437-1.652343-5.980469-1.753906-8.722656-.269531-2.746094 1.484375-4.484375 4.328125-4.550781 7.449219-.0625 3.121094 1.550781 6.035156 4.230468 7.632812l318.757813 194.386719c25.371094 15.605469 57.714844 14.054688 81.476563-3.902343 3.835937-2.878907 4.613281-8.316407 1.738281-12.152344-2.878907-3.832032-8.316407-4.609375-12.152344-1.734375zm0 0"/><path d="m78.164062 234.304688c3.875.003906 7.28125-2.558594 8.351563-6.28125 1.070313-3.722657-.457031-7.703126-3.742187-9.753907l-69.425782-43.390625c-4.070312-2.539062-9.433594-1.296875-11.972656 2.777344-2.542969 4.074219-1.296875 9.433594 2.777344 11.976562l69.421875 43.386719c1.378906.847657 2.972656 1.292969 4.589843 1.285157zm0 0"/><path d="m64.886719 189.597656 69.425781 43.386719c4.074219 2.542969 9.433594 1.296875 11.976562-2.773437 2.539063-4.074219 1.296876-9.4375-2.777343-11.976563l-69.425781-43.390625c-4.074219-2.539062-9.433594-1.296875-11.976563 2.777344-2.539063 4.074218-1.296875 9.433594 2.777344 11.976562zm0 0"/></svg>