<?xml version="1.0" encoding="utf-8"?>
<!-- Generator: Adobe Illustrator 21.0.0, SVG Export Plug-In . SVG Version: 6.00 Build 0)  -->
<svg version="1.1" id="Layer_1" xmlns="http://www.w3.org/2000/svg" xmlns:xlink="http://www.w3.org/1999/xlink" x="0px" y="0px"
	 viewBox="0 0 4380 2104" style="enable-background:new 0 0 4380 2104;" xml:space="preserve">
<style type="text/css">
	.st0{fill:none;stroke:#8456BD;stroke-width:4;stroke-miterlimit:10;}
	.st1{fill:none;stroke:#8456BD;stroke-width:4;stroke-miterlimit:10;stroke-dasharray:5.121,2.0484;}
	.st2{fill:none;stroke:#8456BD;stroke-width:4;stroke-miterlimit:10;stroke-dasharray:5.0133,2.0053;}
	.st3{fill:none;stroke:#8456BD;stroke-width:4;stroke-miterlimit:10;stroke-dasharray:4.9949,1.9979;}
	.st4{fill:none;stroke:#8456BD;stroke-width:4;stroke-miterlimit:10;stroke-dasharray:4.997,1.9988;}
	.st5{fill:none;stroke:#8456BD;stroke-width:4;stroke-miterlimit:10;stroke-dasharray:4.8775,1.951;}
	.st6{fill:none;stroke:#8456BD;stroke-width:4;stroke-miterlimit:10;stroke-dasharray:4.8867,1.9547;}
</style>
<g>
	<g>
		<line class="st0" x1="2082" y1="925.2" x2="2084.2" y2="924"/>
		<polyline class="st1" points="2085.9,923 2105.6,911.9 2117.4,907.5 2136.2,914.4 2146.7,921.3 2154.7,924.5 2163.5,926.4 
			2169.5,929.5 		"/>
		<polyline class="st0" points="2170.4,930 2172.6,931.2 2174.8,930 		"/>
		<polyline class="st2" points="2176.6,929 2189,922.3 2203.1,916.3 2214.4,906.7 2225,891.8 2234.4,881.5 2243,876.3 2258.6,876.3 
			2266.4,873.3 2309.4,844.3 2322.7,827.3 2339.1,815.4 2361.8,792.4 2376.5,776.6 2378.9,760.5 2378.9,747.9 2389.9,733 
			2395.4,726.3 2395.4,652.9 2405.5,629.8 2421.9,607.6 2436.8,582.3 2444.8,573.8 2444.8,548.7 2454.2,524.9 2455.2,510.6 		"/>
		<polyline class="st0" points="2455.3,509.6 2455.4,507.2 2457.4,505.5 		"/>
		<polyline class="st3" points="2458.9,504.3 2464,500 2468.5,479.6 2468.8,471.7 2473.5,451.7 2467.1,430.4 2444.2,413.1 
			2421.9,403.2 2402.4,392.6 2390.5,381.3 2386.8,370.9 2375.8,363.4 2371.7,357.1 		"/>
		<polyline class="st0" points="2371.1,356.3 2369.8,354.2 2370.7,351.9 		"/>
		<polyline class="st4" points="2371.4,350 2377.5,334.3 2391.8,309.8 2398.6,292.1 2406.2,263.3 2407.1,243.1 2406.3,224.6 
			2406,211.5 2394.9,193.6 		"/>
		<polyline class="st0" points="2394.3,192.7 2393,190.6 2395.3,189.6 		"/>
		<polyline class="st5" points="2397.1,188.8 2401.6,186.7 2414.5,171.4 2434.4,154.1 2454.8,130.3 2465.2,121.3 2474.7,114.3 		"/>
		<polyline class="st0" points="2475.5,113.7 2477.5,112.2 2477.6,109.8 		"/>
		<polyline class="st6" points="2477.7,107.8 2478.2,96.8 2498,72.8 2501.6,48.7 2511.8,35.3 2522.5,25.2 2542.4,16.7 2560.3,2.2 		
			"/>
		<line class="st0" x1="2561.1" y1="1.6" x2="2563" y2="0"/>
	</g>
</g>
</svg>
