<?xml version="1.0" encoding="utf-8"?>
<!-- Generator: Adobe Illustrator 21.0.0, SVG Export Plug-In . SVG Version: 6.00 Build 0)  -->
<svg version="1.1" id="Layer_1" xmlns="http://www.w3.org/2000/svg" xmlns:xlink="http://www.w3.org/1999/xlink" x="0px" y="0px"
	 viewBox="0 0 4380 2104" style="enable-background:new 0 0 4380 2104;" xml:space="preserve">
<style type="text/css">
	.st0{fill:none;stroke:#EE615F;stroke-width:4;stroke-miterlimit:10;}
	.st1{fill:none;stroke:#EE615F;stroke-width:4;stroke-miterlimit:10;stroke-dasharray:5.0148,2.0059;}
	.st2{fill:none;stroke:#EE615F;stroke-width:4;stroke-miterlimit:10;stroke-dasharray:5.1391,2.0557;}
	.st3{fill:none;stroke:#EE615F;stroke-width:4;stroke-miterlimit:10;stroke-dasharray:5.3704,2.1481;}
	.st4{fill:none;stroke:#EE615F;stroke-width:4;stroke-miterlimit:10;stroke-dasharray:3.7848,1.5139;}
	.st5{fill:none;stroke:#EE615F;stroke-width:4;stroke-miterlimit:10;stroke-dasharray:4.9451,1.9781;}
	.st6{fill:none;stroke:#EE615F;stroke-width:4;stroke-miterlimit:10;stroke-dasharray:4.9857,1.9943;}
	.st7{fill:none;stroke:#EE615F;stroke-width:4;stroke-miterlimit:10;stroke-dasharray:4.6548,1.8619;}
	.st8{fill:none;stroke:#EE615F;stroke-width:4;stroke-miterlimit:10;stroke-dasharray:5.1283,2.0513;}
	.st9{fill:none;stroke:#EE615F;stroke-width:4;stroke-miterlimit:10;stroke-dasharray:4.7932,1.9173;}
	.st10{fill:none;stroke:#EE615F;stroke-width:4;stroke-miterlimit:10;stroke-dasharray:4.9833,1.9933;}
	.st11{fill:none;stroke:#EE615F;stroke-width:4;stroke-miterlimit:10;stroke-dasharray:4.9963,1.9985;}
	.st12{fill:none;stroke:#EE615F;stroke-width:4;stroke-miterlimit:10;stroke-dasharray:4.977,1.9908;}
</style>
<g>
	<g>
		<g>
			<line class="st0" x1="2060.6" y1="933.2" x2="2061.8" y2="935.4"/>
			<polyline class="st1" points="2062.8,937.1 2066.4,943.6 2073.4,955.7 2066.2,986.8 2052.3,1023.7 2035.1,1041.5 2024.1,1050.5 
				1986.6,1062 1954.2,1071.9 1944.4,1083.1 1922.6,1105.4 1890,1134.5 1866.5,1153.7 1837.5,1188.2 1816.3,1216.7 1798.8,1241.8 
				1745.9,1279.1 1722.5,1288 1690.2,1302.4 1670.9,1319.1 1663.8,1327.5 1638.8,1340.8 1630.7,1350.6 1610,1371.1 1583.4,1384.5 
				1544.6,1417.9 1528.2,1430.6 1524,1440.9 1493.3,1491.4 1480.2,1499.9 1464,1517.7 1449,1532.9 1446.8,1553.6 1436.5,1573 
				1400.5,1592.3 1384.9,1610.1 1369.3,1627.9 1336.2,1636 1322.6,1631.4 			"/>
			<polyline class="st0" points="1321.6,1631.1 1319.3,1630.3 1319.3,1627.8 			"/>
			<polyline class="st0" points="1319.3,1625.6 1319.3,1623.1 1316.9,1622.6 			"/>
			<polyline class="st2" points="1314.9,1622.2 1298.9,1619 1293.4,1612.9 1289.8,1577.6 1275.5,1564.1 1263.5,1558.1 
				1235.7,1563.2 			"/>
			<polyline class="st0" points="1234.7,1563.3 1232.2,1563.8 1230.3,1562.2 			"/>
			<polyline class="st3" points="1228.6,1560.9 1220.5,1554.5 1213,1553.7 1195.9,1561.2 			"/>
			<polyline class="st0" points="1194.9,1561.6 1192.6,1562.6 1190.3,1561.6 			"/>
			<line class="st4" x1="1188.9" y1="1561.1" x2="1184.7" y2="1559.4"/>
			<polyline class="st0" points="1184,1559.1 1181.7,1558.1 1181.7,1555.6 			"/>
			<polyline class="st5" points="1181.7,1553.7 1181.7,1541.8 1196.3,1523.6 1199,1508.7 1194,1482.2 1193,1452.4 1186.8,1445.1 			
				"/>
			<line class="st0" x1="1186.1" y1="1444.4" x2="1184.5" y2="1442.5"/>
		</g>
	</g>
	<g>
		<g>
			<line class="st0" x1="1188" y1="1560.7" x2="1188" y2="1563.2"/>
			<polyline class="st6" points="1187.9,1565.2 1187.7,1574.5 1196,1584.7 1200.9,1596.7 1206.9,1613.8 1216.2,1633.8 
				1219.2,1648.7 1228,1657.1 1251.1,1664.3 1286.4,1677 1304,1678.9 1311.9,1683.9 1324.1,1697.3 1384.9,1733.3 1435.7,1775.6 
				1452,1782.7 1469,1783.7 1480.2,1791.9 1499.8,1808.3 1520.5,1821.6 1524.4,1827.8 			"/>
			<polyline class="st0" points="1524.9,1828.6 1526.3,1830.7 1524.4,1832.4 			"/>
			<polyline class="st7" points="1523.1,1833.7 1519.3,1837.2 1513,1846.9 1513.6,1855.3 			"/>
			<polyline class="st0" points="1513.7,1856.2 1513.8,1858.7 1516.1,1859.7 			"/>
			<path class="st8" d="M1518,1860.6l6,2.6l12.5,3.7l9.4-5l7.7-12.8c0,0-2.3-14.1,0-16.3s1-20,1-20l-0.5-17.5"/>
			<polyline class="st0" points="1554.1,1794.2 1554,1791.7 1556.2,1790.6 			"/>
			<polyline class="st9" points="1557.9,1789.7 1565.2,1786 1577.1,1778 1579.6,1768.2 			"/>
			<polyline class="st0" points="1579.9,1767.3 1580.5,1764.9 1582.9,1764.4 			"/>
			<polyline class="st10" points="1584.9,1763.9 1599,1760.8 1610.7,1755.6 1631.1,1746.1 1640.4,1724.4 1652.2,1713.8 1665.4,1708 
							"/>
			<polyline class="st0" points="1666.3,1707.6 1668.6,1706.6 1670.8,1707.8 			"/>
			<polyline class="st11" points="1672.5,1708.7 1681.9,1713.8 1689.7,1731.1 1695.7,1768.4 1703.2,1784.8 1717,1800.2 
				1740.5,1816.4 1747.9,1835.4 1745.9,1862.4 1745.9,1879.5 1759.2,1898.8 1772.7,1904.8 1813.1,1904.8 1833.5,1904.8 
				1849.3,1893.1 1875.5,1865.6 1885.8,1863.9 1908.5,1855.8 1930,1843.3 1961.2,1814.6 1982,1788.6 2025.2,1750.9 2051,1728.8 
				2118.2,1647.1 2158.2,1608.6 2215.8,1552.9 2228.8,1535.3 2259,1507.3 2283.6,1477.2 2295.5,1461.5 2301.2,1437.2 2317.6,1420.5 
				2338.7,1410.4 2368,1379.3 2399.7,1343.6 2420.8,1334.7 2436,1314.7 2444.2,1290.2 2433.7,1265.7 2444.2,1227.8 2444.2,1180 
				2430.2,1150.2 2404.3,1128.8 2379.7,1117.6 2366.8,1120.3 2355,1119.6 2330.3,1111 			"/>
			<polyline class="st0" points="2329.3,1110.7 2327,1109.8 2326.7,1107.3 			"/>
			<polyline class="st12" points="2326.5,1105.4 2325,1089.4 2307.2,1057.1 2289.2,1039.1 2252,1021.9 2227.3,1004.1 2209.8,980.7 
				2194.5,965.1 2166.4,956.2 2153.5,947.3 2133.6,939.5 2106.6,927.2 2082,927.2 2063.9,932.3 			"/>
			<line class="st0" x1="2063" y1="932.5" x2="2060.6" y2="933.2"/>
		</g>
	</g>
</g>
</svg>
