<?xml version="1.0" encoding="utf-8"?>
<!-- Generator: Adobe Illustrator 21.0.0, SVG Export Plug-In . SVG Version: 6.00 Build 0)  -->
<svg version="1.1" id="Layer_1" xmlns="http://www.w3.org/2000/svg" xmlns:xlink="http://www.w3.org/1999/xlink" x="0px" y="0px"
	 viewBox="0 0 4380 2104" style="enable-background:new 0 0 4380 2104;" xml:space="preserve">
<style type="text/css">
	.st0{fill:none;stroke:#18C93E;stroke-width:4;stroke-miterlimit:10;stroke-dasharray:5,2;}
</style>
<path class="st0" d="M2106.6,927.2l15.9-4.3l8.7,4.3l10.3,4.9l10.9,4.6l8.5,3.1l6.9,4.1l9.1,5.5l8.6,2.6l12.1,1.9l5.5,2.2l6.6,6.7
	l3.5,5.6l9.8,8.9l5.5,10l10.9,11.1l6.3,5.9l9.8,6.3l14.8,5.9l7.4,3.3l10.2,3.3l8.2,4.1l7,3.3l5.1,7.1l7.4,5.9l5.1,9.6l2.7,7.1
	l2.3,6.3l8.2,3c0,0,9.4,1.1,10.6,1.9c1.2,0.7,7.8,0,7.8,0l7.8,0.3l5.9-5.5l7.4-3.7l62.5-83.1l8.2-46.8v-67.9l-9.4-59l-8.2-15.6
	l-7-7.8l-19.9-7.8h-12.9l-7,12.2l-5,10l-8.5,8.4l-7.9,9.2l-10.6,10.6c0,0-10,7-11.4,8.1s-5,5.3-5.9,5.8c-0.9,0.6-6.4,7-6.4,7
	l-5.6,7.2l-10.3,7.2l-11.7,7.8l-12.6,7.5l-10.6,7.8l-18.2,7.2l-9.4-1.4l-7.6,5l-3.5,6.4l-5.6,8.1l-12.3,14.5l-12.6,5.9l-11.4,4.2
	l-10,7.5l-15,3.1"/>
</svg>
