<?xml version="1.0" encoding="utf-8"?>
<!-- Generator: Adobe Illustrator 21.0.0, SVG Export Plug-In . SVG Version: 6.00 Build 0)  -->
<svg version="1.1" id="Layer_1" xmlns="http://www.w3.org/2000/svg" xmlns:xlink="http://www.w3.org/1999/xlink" x="0px" y="0px"
	 viewBox="0 0 4380 2104" style="enable-background:new 0 0 4380 2104;" xml:space="preserve">
<style type="text/css">
	.st0{fill:none;stroke:#00BED5;stroke-width:4;stroke-miterlimit:10;stroke-dasharray:5,2;}
</style>
<path class="st0" d="M2060.6,933.2l-20.3,2.1l-23.8-25.9l-29.9-13.3v-25.2l-14.1-32.7l-61-13.4l-18.8,13.4l-17.2,8.9l-34.4-3
	l-14.1-13.4l-14.3-13.4l-18.6-10.4l-6.4-5.9l-40.5-37.2l-18.8-16.3l-7.8-40.1l7.8-34.1l4.7-23.8l-12.5-34.1l-10.9-29.7
	c0,0,6.3-16.3,0-20.8c-6.3-4.5,0-23.8,0-23.8l-2.8-17.8l7.5-29.7c0,0,0-13.4,0-17.8s4.7-31.2,4.7-31.2l-4.7-19.3l-7.5-23.8
	l-39.4-11.9l-40.6-11.9h-10.9l-6.3-14.1v-12.6h-53.1c0,0-3.1,16.3-18.8,26.7c-15.6,10.4-48.5,19.3-48.5,19.3h-37.5l-28.1,1.5"/>
</svg>
